<svg xmlns="http://www.w3.org/2000/svg" width="20" height="20" viewBox="0 0 20 20">
  <defs>
    <style>
      .cls-1 {
        fill: #3e2020;
        opacity: 0;
      }

      .cls-2 {
        fill: #fff;
      }
    </style>
  </defs>
  <g id="组_282" data-name="组 282" transform="translate(-17 -101)">
    <rect id="矩形_243" data-name="矩形 243" class="cls-1" width="20" height="20" transform="translate(17 101)"/>
    <g id="组_9" data-name="组 9" transform="translate(-144 5.308)">
      <g id="组_6" data-name="组 6" transform="translate(161 98.474)">
        <path id="路径_8" data-name="路径 8" class="cls-2" d="M166.044,101.039h-3.751A1.292,1.292,0,0,0,161,102.332v7.5a1.292,1.292,0,0,0,1.293,1.293h3.751l4.854,2.428a1.294,1.294,0,0,0,1.871-1.157V99.768a1.294,1.294,0,0,0-1.871-1.157Z" transform="translate(-161 -98.474)"/>
      </g>
      <g id="组_7" data-name="组 7" transform="translate(173.462 101.644)">
        <path id="路径_9" data-name="路径 9" class="cls-2" d="M169.252,109a.828.828,0,0,1-.446-.128.842.842,0,0,1-.266-1.16,5.768,5.768,0,0,0,.864-3.662,5.6,5.6,0,0,0-.859-2.4.841.841,0,0,1,1.414-.91,7.318,7.318,0,0,1,1.116,3.12,7.457,7.457,0,0,1-1.111,4.744A.84.84,0,0,1,169.252,109Z" transform="translate(-168.412 -100.36)"/>
      </g>
      <g id="组_8" data-name="组 8" transform="translate(176.612 100.198)">
        <path id="路径_10" data-name="路径 10" class="cls-2" d="M171.127,111.032a.83.83,0,0,1-.446-.129.839.839,0,0,1-.266-1.158,8.507,8.507,0,0,0,1.273-5.407,8.283,8.283,0,0,0-1.269-3.542.841.841,0,1,1,1.416-.908,9.98,9.98,0,0,1,1.525,4.264,10.2,10.2,0,0,1-1.522,6.488A.837.837,0,0,1,171.127,111.032Z" transform="translate(-170.286 -99.5)"/>
      </g>
    </g>
  </g>
</svg>
