<svg xmlns="http://www.w3.org/2000/svg" xmlns:xlink="http://www.w3.org/1999/xlink" width="44" height="44" viewBox="0 0 44 44">
  <defs>
    <style>
      .cls-1 {
        fill: #b7b7b7;
        opacity: 0;
      }

      .cls-2 {
        fill: url(#linear-gradient);
      }

      .cls-3 {
        fill: #fff;
      }

      .cls-4 {
        fill: none;
        stroke: #fff;
        stroke-linecap: round;
        stroke-miterlimit: 10;
        stroke-width: 2px;
      }
    </style>
    <linearGradient id="linear-gradient" x1="0.5" x2="0.5" y2="1" gradientUnits="objectBoundingBox">
      <stop offset="0" stop-color="#ff7e83"/>
      <stop offset="1" stop-color="#fa010a"/>
    </linearGradient>
  </defs>
  <g id="组_949" data-name="组 949" transform="translate(-20.967 -154.967)">
    <rect id="矩形_1133" data-name="矩形 1133" class="cls-1" width="44" height="44" transform="translate(20.967 154.967)"/>
    <circle id="椭圆_165" data-name="椭圆 165" class="cls-2" cx="22" cy="22" r="22" transform="translate(20.967 154.967)"/>
    <g id="组_68" data-name="组 68" transform="translate(32.531 164.82)">
      <g id="组_67" data-name="组 67" transform="translate(0.804 4.787)">
        <path id="减去_1" data-name="减去 1" class="cls-3" d="M14.546,16.456H.038A.037.037,0,0,1,0,16.421V6.732A7.037,7.037,0,0,1,7.291,0c.15,0,.3,0,.451.013a7.323,7.323,0,0,1,4.883,2.221A6.845,6.845,0,0,1,14.585,7v9.426A.038.038,0,0,1,14.546,16.456ZM8.867,4.164h0l-3.809,5a.032.032,0,0,0-.006.029.033.033,0,0,0,.02.022l1.639.59a.032.032,0,0,1,.021.038l-.9,3.929a.031.031,0,0,0,.006.027.035.035,0,0,0,.027.013.03.03,0,0,0,.024-.012L9.632,9.164a.031.031,0,0,0,.006-.028.032.032,0,0,0-.02-.022L7.891,8.491a.032.032,0,0,1-.021-.038l1-4.289Z" transform="translate(2.325 0)"/>
        <rect id="矩形_108" data-name="矩形 108" class="cls-3" width="19.234" height="3.049" rx="1.525" transform="translate(0 16.456)"/>
      </g>
      <line id="直线_30" data-name="直线 30" class="cls-4" y1="2.259" transform="translate(10.424)"/>
      <line id="直线_31" data-name="直线 31" class="cls-4" y1="1.957" x2="1.13" transform="translate(15.322 1.602)"/>
      <line id="直线_32" data-name="直线 32" class="cls-4" y1="1.13" x2="1.957" transform="translate(18.915 6.004)"/>
      <line id="直线_33" data-name="直线 33" class="cls-4" x1="1.957" y1="1.13" transform="translate(0 6.046)"/>
      <line id="直线_34" data-name="直线 34" class="cls-4" x1="1.13" y1="1.957" transform="translate(4.402 1.627)"/>
    </g>
  </g>
</svg>
